# xmcd
#
# Track frame offsets: 
#        150
#        54750
#        101775
#        113775
#        133275
#        148650
#        171000
#        199875
#        240375
#
# Disc length: 3694 seconds
#
# Revision: 0
# Processed by: cddbd v1.5.2PL0 Copyright (c) Steve Scherf et al.
# Submitted via: ExactAudioCopy v0.95b4
#
DISCID=7d0e6c09
DTITLE=Eduard Tubin - Complete Piano Music [CD 2)
DYEAR=1988
DGENRE=BIS-CD-414/16 
TTITLE0=Variations on an Estonian Folk Tune (1945, rev.1981)
TTITLE1=Ballade on a Theme by Mart Saar (1945)
TTITLE2=4 Folk Songs from my Country (1947): Waltz with Variations
TTITLE3=4 Folk Songs from my Country (1947): Sower´s Song
TTITLE4=4 Folk Songs from my Country (1947): Kantele Polka
TTITLE5=4 Folk Songs from my Country (1947): Thresher´s Dance
TTITLE6=Sonatina in D minor (1942): I. Allegro moderato, ma un poco ag
TTITLE6=itato
TTITLE7=Sonatina in D minor (1942): II. Andante sostenuto, quasi largo
TTITLE8=Sonatina in D minor (1942): III. Presto
EXTD=
EXTT0=
EXTT1=
EXTT2=
EXTT3=
EXTT4=
EXTT5=
EXTT6=
EXTT7=
EXTT8=
PLAYORDER=
